<svg width="72" height="64" viewBox="0 0 72 64" fill="none" xmlns="http://www.w3.org/2000/svg">
<path d="M44.8716 6.02709L23.7991 63.5664H15.1865L39.4504 0.433594H45.0027L44.8716 6.02709ZM62.534 63.5664L41.4178 6.02709L41.2866 0.433594H46.8389L71.1903 63.5664H62.534ZM61.441 40.1951V47.0461H25.679V40.1951H61.441Z" fill="#D9D9D9"/>
<path d="M42.8881 57.4092V64H1.22413V58.2331L22.078 35.2087C24.6428 32.3758 26.6247 29.9765 28.0237 28.0108C29.4519 26.0163 30.4428 24.2385 30.9966 22.6775C31.5795 21.0876 31.871 19.4688 31.871 17.8211C31.871 15.7398 31.4338 13.8609 30.5594 12.1843C29.7142 10.4788 28.4609 9.12014 26.7996 8.1084C25.1383 7.09666 23.1272 6.59079 20.7664 6.59079C17.9393 6.59079 15.5785 7.14002 13.684 8.23848C11.8186 9.30804 10.4196 10.8112 9.48698 12.748C8.55431 14.6847 8.08797 16.9106 8.08797 19.4255H0C0 15.8699 0.786938 12.6179 2.36081 9.66938C3.93469 6.72087 6.26636 4.3794 9.35582 2.64499C12.4453 0.881662 16.2488 0 20.7664 0C24.7885 0 28.2278 0.70822 31.0841 2.12466C33.9403 3.5122 36.1263 5.47787 37.6419 8.02168C39.1866 10.5366 39.959 13.4851 39.959 16.8672C39.959 18.7173 39.6384 20.5962 38.9972 22.5041C38.3851 24.383 37.5253 26.262 36.4177 28.1409C35.3393 30.0199 34.0715 31.8699 32.6142 33.6911C31.1861 35.5122 29.6559 37.3044 28.0237 39.0678L10.9734 57.4092H42.8881Z" fill="#0BAADA"/>
</svg>
