<svg width="83" height="81" viewBox="0 0 83 81" fill="none" xmlns="http://www.w3.org/2000/svg">
<path d="M49.7517 11.6864L28.7357 75.519H20.1461L44.3451 5.48108H49.8825L49.7517 11.6864ZM67.3669 75.519L46.3072 11.6864L46.1764 5.48108H51.7138L76 75.519H67.3669ZM65.9194 49.5915L66.2768 57.1918H30.6105V49.5915H65.9194Z" fill="#E5E5E5" stroke="#D9D9D9" stroke-width="9"/>
<path d="M47.7733 68.6883V76H6.22085V69.6023L27.0189 44.0596C29.5769 40.9169 31.5535 38.2552 32.9487 36.0745C34.3731 33.8618 35.3614 31.8896 35.9137 30.1579C36.495 28.3941 36.7857 26.5982 36.7857 24.7703C36.7857 22.4614 36.3497 20.3769 35.4776 18.5169C34.6347 16.6249 33.3848 15.1177 31.7279 13.9953C30.071 12.8729 28.0653 12.3117 25.7108 12.3117C22.8913 12.3117 20.5368 12.921 18.6474 14.1396C16.787 15.3261 15.3918 16.9937 14.4616 19.1423C13.5314 21.2909 13.0663 23.7602 13.0663 26.5501H5C5 22.6057 5.78483 18.998 7.3545 15.727C8.92416 12.456 11.2496 9.8584 14.3308 7.93428C17.412 5.97809 21.2053 5 25.7108 5C29.7222 5 33.1522 5.78568 36.0009 7.35705C38.8495 8.89634 41.0296 11.077 42.5411 13.8991C44.0817 16.689 44.852 19.96 44.852 23.7121C44.852 25.7645 44.5323 27.8489 43.8928 29.9655C43.2823 32.0499 42.4249 34.1344 41.3203 36.2188C40.2448 38.3033 38.9803 40.3557 37.5269 42.376C36.1026 44.3963 34.5765 46.3846 32.9487 48.3408L15.944 68.6883H47.7733Z" fill="#0BAADA" stroke="#0BAADA" stroke-width="9"/>
</svg>
