<svg width="113" height="16" viewBox="0 0 113 16" fill="none" xmlns="http://www.w3.org/2000/svg">
<path d="M5.41016 11.5723L8.67188 0.78125H9.39453L8.62305 3.4375L5.16602 15H4.50195L5.41016 11.5723ZM1.43555 0.78125L4.24805 11.5332L5.08789 15H4.35547L0.595703 0.78125H1.43555ZM13.8574 11.5332L16.6406 0.78125H17.4707L13.7207 15H12.9883L13.8574 11.5332ZM9.44336 0.78125L12.666 11.5723L13.5742 15H12.9102L9.50195 3.4375L8.7207 0.78125H9.44336ZM20.4395 0V15H19.668V0H20.4395ZM20.293 8.90625L19.9121 8.45703C19.9707 7.89714 20.1074 7.36328 20.3223 6.85547C20.5436 6.34766 20.8333 5.89844 21.1914 5.50781C21.556 5.11719 21.9792 4.80794 22.4609 4.58008C22.9492 4.35221 23.4863 4.23828 24.0723 4.23828C24.5996 4.23828 25.0716 4.31315 25.4883 4.46289C25.9049 4.60612 26.2565 4.83398 26.543 5.14648C26.8359 5.45898 27.0573 5.86263 27.207 6.35742C27.3568 6.8457 27.4316 7.44141 27.4316 8.14453V15H26.6602V8.14453C26.6602 7.3112 26.5462 6.66667 26.3184 6.21094C26.0905 5.7487 25.7715 5.42318 25.3613 5.23438C24.9577 5.04557 24.4857 4.95117 23.9453 4.95117C23.3203 4.95117 22.7799 5.09115 22.3242 5.37109C21.875 5.64453 21.5039 5.99284 21.2109 6.41602C20.918 6.83268 20.6934 7.26562 20.5371 7.71484C20.3874 8.16406 20.306 8.5612 20.293 8.90625ZM31.5332 4.43359V15H30.752V4.43359H31.5332ZM30.5078 1.23047C30.5078 1.05469 30.5664 0.904948 30.6836 0.78125C30.8073 0.651042 30.9635 0.585938 31.1523 0.585938C31.3346 0.585938 31.4876 0.651042 31.6113 0.78125C31.735 0.904948 31.7969 1.05469 31.7969 1.23047C31.7969 1.40625 31.735 1.55599 31.6113 1.67969C31.4876 1.79688 31.3346 1.85547 31.1523 1.85547C30.9635 1.85547 30.8073 1.79688 30.6836 1.67969C30.5664 1.55599 30.5078 1.40625 30.5078 1.23047ZM35.8105 0V15H35.0293V0H35.8105ZM43.0957 15.1953C42.4316 15.1953 41.8164 15.0684 41.25 14.8145C40.6836 14.554 40.1888 14.1927 39.7656 13.7305C39.3424 13.2617 39.0104 12.7083 38.7695 12.0703C38.5352 11.4323 38.418 10.7324 38.418 9.9707V9.54102C38.418 8.75326 38.5352 8.03711 38.7695 7.39258C39.0104 6.74154 39.3359 6.18164 39.7461 5.71289C40.1562 5.23763 40.6283 4.87305 41.1621 4.61914C41.7025 4.36523 42.2786 4.23828 42.8906 4.23828C43.5091 4.23828 44.069 4.35221 44.5703 4.58008C45.0716 4.80794 45.5013 5.12695 45.8594 5.53711C46.2174 5.94727 46.4909 6.43555 46.6797 7.00195C46.8685 7.56836 46.9629 8.19336 46.9629 8.87695V9.53125H38.9062V8.81836H46.1914V8.69141C46.1849 8.02734 46.0482 7.41211 45.7812 6.8457C45.5208 6.2793 45.1465 5.82357 44.6582 5.47852C44.1699 5.12695 43.5807 4.95117 42.8906 4.95117C42.3372 4.95117 41.8327 5.06836 41.377 5.30273C40.9277 5.53711 40.5404 5.86263 40.2148 6.2793C39.8893 6.68945 39.6387 7.17448 39.4629 7.73438C39.2871 8.28776 39.1992 8.88997 39.1992 9.54102V9.9707C39.1992 10.5957 39.2969 11.1816 39.4922 11.7285C39.6875 12.2754 39.9609 12.7572 40.3125 13.1738C40.6641 13.584 41.0775 13.9062 41.5527 14.1406C42.028 14.375 42.5488 14.4922 43.1152 14.4922C43.7272 14.4922 44.2871 14.3848 44.7949 14.1699C45.3027 13.9551 45.765 13.5775 46.1816 13.0371L46.6895 13.418C46.4551 13.7565 46.1719 14.0592 45.8398 14.3262C45.5078 14.5931 45.1139 14.8047 44.6582 14.9609C44.209 15.1172 43.6882 15.1953 43.0957 15.1953ZM57.2949 12.1777L59.7266 4.43359H60.3418L59.6973 6.88477L57.0898 15H56.4648L57.2949 12.1777ZM54.1504 4.43359L56.3379 12.1875L57.002 15H56.377L53.3105 4.43359H54.1504ZM63.8574 12.1777L66.0156 4.43359H66.8652L63.7891 15H63.1641L63.8574 12.1777ZM60.4492 4.43359L62.8711 12.1484L63.7012 15H63.0762L60.4297 6.88477L59.8242 4.43359H60.4492ZM73.2324 15.1953C72.5684 15.1953 71.9531 15.0684 71.3867 14.8145C70.8203 14.554 70.3255 14.1927 69.9023 13.7305C69.4792 13.2617 69.1471 12.7083 68.9062 12.0703C68.6719 11.4323 68.5547 10.7324 68.5547 9.9707V9.54102C68.5547 8.75326 68.6719 8.03711 68.9062 7.39258C69.1471 6.74154 69.4727 6.18164 69.8828 5.71289C70.293 5.23763 70.765 4.87305 71.2988 4.61914C71.8392 4.36523 72.4154 4.23828 73.0273 4.23828C73.6458 4.23828 74.2057 4.35221 74.707 4.58008C75.2083 4.80794 75.638 5.12695 75.9961 5.53711C76.3542 5.94727 76.6276 6.43555 76.8164 7.00195C77.0052 7.56836 77.0996 8.19336 77.0996 8.87695V9.53125H69.043V8.81836H76.3281V8.69141C76.3216 8.02734 76.1849 7.41211 75.918 6.8457C75.6576 6.2793 75.2832 5.82357 74.7949 5.47852C74.3066 5.12695 73.7174 4.95117 73.0273 4.95117C72.474 4.95117 71.9694 5.06836 71.5137 5.30273C71.0645 5.53711 70.6771 5.86263 70.3516 6.2793C70.026 6.68945 69.7754 7.17448 69.5996 7.73438C69.4238 8.28776 69.3359 8.88997 69.3359 9.54102V9.9707C69.3359 10.5957 69.4336 11.1816 69.6289 11.7285C69.8242 12.2754 70.0977 12.7572 70.4492 13.1738C70.8008 13.584 71.2142 13.9062 71.6895 14.1406C72.1647 14.375 72.6855 14.4922 73.252 14.4922C73.8639 14.4922 74.4238 14.3848 74.9316 14.1699C75.4395 13.9551 75.9017 13.5775 76.3184 13.0371L76.8262 13.418C76.5918 13.7565 76.3086 14.0592 75.9766 14.3262C75.6445 14.5931 75.2507 14.8047 74.7949 14.9609C74.3457 15.1172 73.8249 15.1953 73.2324 15.1953ZM88.0469 14.4824C88.5742 14.4824 89.0723 14.3848 89.541 14.1895C90.0163 13.9941 90.4102 13.6979 90.7227 13.3008C91.0417 12.8971 91.2207 12.3861 91.2598 11.7676H92.0215C91.9889 12.4707 91.7871 13.0794 91.416 13.5938C91.0449 14.1016 90.5664 14.4954 89.9805 14.7754C89.3945 15.0553 88.75 15.1953 88.0469 15.1953C87.3438 15.1953 86.7155 15.0651 86.1621 14.8047C85.6152 14.5443 85.1562 14.1764 84.7852 13.7012C84.4141 13.2259 84.1309 12.6693 83.9355 12.0312C83.7467 11.3867 83.6523 10.6836 83.6523 9.92188V9.51172C83.6523 8.75 83.7467 8.05013 83.9355 7.41211C84.1309 6.76758 84.4141 6.20768 84.7852 5.73242C85.1562 5.25716 85.612 4.88932 86.1523 4.62891C86.6992 4.36849 87.3242 4.23828 88.0273 4.23828C88.737 4.23828 89.388 4.38477 89.9805 4.67773C90.5729 4.96419 91.0514 5.38411 91.416 5.9375C91.7871 6.48438 91.9889 7.15495 92.0215 7.94922H91.2598C91.2272 7.29818 91.0612 6.7513 90.7617 6.30859C90.4622 5.86589 90.0716 5.5306 89.5898 5.30273C89.1081 5.06836 88.5872 4.95117 88.0273 4.95117C87.4023 4.95117 86.862 5.07161 86.4062 5.3125C85.9505 5.55339 85.5762 5.88542 85.2832 6.30859C84.9902 6.72526 84.7754 7.21029 84.6387 7.76367C84.502 8.31055 84.4336 8.89323 84.4336 9.51172V9.92188C84.4336 10.5469 84.502 11.1361 84.6387 11.6895C84.7754 12.2363 84.9902 12.7181 85.2832 13.1348C85.5762 13.5514 85.9505 13.8802 86.4062 14.1211C86.8685 14.362 87.4154 14.4824 88.0469 14.4824ZM101.104 13.0566V7.59766C101.104 7.04427 100.986 6.56901 100.752 6.17188C100.518 5.77474 100.176 5.47201 99.7266 5.26367C99.2773 5.04883 98.7272 4.94141 98.0762 4.94141C97.4707 4.94141 96.9271 5.04883 96.4453 5.26367C95.9701 5.47201 95.5957 5.75846 95.3223 6.12305C95.0488 6.48763 94.9121 6.89453 94.9121 7.34375L94.1309 7.33398C94.1309 6.93034 94.2253 6.54297 94.4141 6.17188C94.6094 5.80078 94.8828 5.47201 95.2344 5.18555C95.5924 4.89258 96.0124 4.66146 96.4941 4.49219C96.9824 4.32292 97.5163 4.23828 98.0957 4.23828C98.8379 4.23828 99.4922 4.36523 100.059 4.61914C100.632 4.86654 101.077 5.24089 101.396 5.74219C101.715 6.24349 101.875 6.86849 101.875 7.61719V12.832C101.875 13.2096 101.901 13.5905 101.953 13.9746C102.005 14.3587 102.077 14.668 102.168 14.9023V15H101.318C101.247 14.7526 101.191 14.4499 101.152 14.0918C101.12 13.7337 101.104 13.3887 101.104 13.0566ZM101.357 9.00391L101.377 9.67773H98.7988C98.1478 9.67773 97.5651 9.73958 97.0508 9.86328C96.5365 9.98698 96.1003 10.1628 95.7422 10.3906C95.3841 10.6185 95.1107 10.8887 94.9219 11.2012C94.7331 11.5137 94.6387 11.8652 94.6387 12.2559C94.6387 12.6595 94.7461 13.0306 94.9609 13.3691C95.1758 13.7077 95.4785 13.9779 95.8691 14.1797C96.2598 14.375 96.7122 14.4727 97.2266 14.4727C97.9297 14.4727 98.5514 14.3522 99.0918 14.1113C99.6387 13.8639 100.098 13.5319 100.469 13.1152C100.84 12.6921 101.11 12.2038 101.279 11.6504L101.621 12.2168C101.51 12.5618 101.338 12.9102 101.104 13.2617C100.869 13.6133 100.566 13.9355 100.195 14.2285C99.8242 14.515 99.388 14.7493 98.8867 14.9316C98.3854 15.1074 97.8158 15.1953 97.1777 15.1953C96.5072 15.1953 95.9212 15.0716 95.4199 14.8242C94.9251 14.5703 94.541 14.2253 94.2676 13.7891C93.9941 13.3464 93.8574 12.8418 93.8574 12.2754C93.8574 11.7871 93.9681 11.3411 94.1895 10.9375C94.4108 10.5339 94.7298 10.1888 95.1465 9.90234C95.5697 9.60938 96.0807 9.38802 96.6797 9.23828C97.2852 9.08203 97.9655 9.00391 98.7207 9.00391H101.357ZM105.947 6.68945V15H105.176V4.43359H105.938L105.947 6.68945ZM105.801 8.90625L105.42 8.45703C105.479 7.89714 105.615 7.36328 105.83 6.85547C106.051 6.34766 106.341 5.89844 106.699 5.50781C107.064 5.11719 107.487 4.80794 107.969 4.58008C108.457 4.35221 108.994 4.23828 109.58 4.23828C110.107 4.23828 110.579 4.31315 110.996 4.46289C111.413 4.60612 111.764 4.83398 112.051 5.14648C112.344 5.45898 112.565 5.86263 112.715 6.35742C112.865 6.8457 112.939 7.44141 112.939 8.14453V15H112.168V8.14453C112.168 7.3112 112.054 6.66667 111.826 6.21094C111.598 5.7487 111.279 5.42318 110.869 5.23438C110.465 5.04557 109.993 4.95117 109.453 4.95117C108.828 4.95117 108.288 5.09115 107.832 5.37109C107.383 5.64453 107.012 5.99284 106.719 6.41602C106.426 6.83268 106.201 7.26562 106.045 7.71484C105.895 8.16406 105.814 8.5612 105.801 8.90625Z" fill="white"/>
</svg>
