<svg width="64" height="64" viewBox="0 0 64 64" fill="none" xmlns="http://www.w3.org/2000/svg">
<circle cx="32" cy="32" r="31.5" stroke="#838383"/>
<path d="M38.8832 9.27243L23.7979 50.4636H17.6323L35.0024 5.26816H38.9771L38.8832 9.27243ZM51.5274 50.4636L36.4107 9.27243L36.3169 5.26816H40.2916L57.7243 50.4636H51.5274ZM50.745 33.7326V38.6371H25.1437V33.7326H50.745Z" fill="#808080"/>
<path d="M37.4633 46.0558V50.774H7.63689V46.6456L22.5657 30.1629C24.4019 28.1349 25.8207 26.4173 26.8222 25.0101C27.8446 23.5822 28.554 22.3096 28.9504 21.1921C29.3677 20.0539 29.5764 18.8951 29.5764 17.7155C29.5764 16.2256 29.2634 14.8805 28.6374 13.6802C28.0324 12.4593 27.1352 11.4867 25.9459 10.7624C24.7566 10.0381 23.3169 9.67594 21.6268 9.67594C19.6029 9.67594 17.9129 10.0691 16.5566 10.8555C15.2213 11.6212 14.2198 12.6973 13.5521 14.0837C12.8844 15.4702 12.5506 17.0637 12.5506 18.864H6.76056C6.76056 16.3187 7.32392 13.9906 8.45062 11.8798C9.57733 9.76907 11.2465 8.09286 13.4582 6.85122C15.6699 5.5889 18.3928 4.95773 21.6268 4.95773C24.5062 4.95773 26.9682 5.46473 29.013 6.47873C31.0578 7.47204 32.6226 8.87923 33.7076 10.7003C34.8135 12.5007 35.3664 14.6114 35.3664 17.0326C35.3664 18.357 35.1369 19.7021 34.6778 21.0679C34.2397 22.413 33.6242 23.7581 32.8313 25.1032C32.0593 26.4483 31.1517 27.7728 30.1084 29.0765C29.086 30.3802 27.9906 31.6632 26.8222 32.9255L14.6162 46.0558H37.4633Z" fill="#0BAADA"/>
</svg>
