<svg width="40" height="40" viewBox="0 0 40 40" fill="none" xmlns="http://www.w3.org/2000/svg">
<g filter="url(#filter0_d_120_284)">
<circle cx="20" cy="16" r="16" fill="#0BAADA"/>
<circle cx="20" cy="16" r="16" fill="#9D2AF4"/>
</g>
<path d="M28 18.6667V9.77778C28 9.30628 27.8127 8.8541 27.4793 8.5207C27.1459 8.1873 26.6937 8 26.2222 8H13.7778C13.3063 8 12.8541 8.1873 12.5207 8.5207C12.1873 8.8541 12 9.30628 12 9.77778V22.2222C12 22.6937 12.1873 23.1459 12.5207 23.4793C12.8541 23.8127 13.3063 24 13.7778 24H22.6667M28 18.6667V18.8196C27.9999 19.291 27.8125 19.7431 27.4791 20.0764L24.0764 23.4791C23.7431 23.8125 23.291 23.9999 22.8196 24H22.6667M28 18.6667H24.4444C23.9729 18.6667 23.5208 18.854 23.1874 19.1874C22.854 19.5208 22.6667 19.9729 22.6667 20.4444V24M15.5556 11.5556H24.4444M15.5556 15.1111H24.4444M15.5556 18.6667H19.1111" stroke="#D9D9D9" stroke-width="2" stroke-linecap="round" stroke-linejoin="round"/>
<defs>
<filter id="filter0_d_120_284" x="0" y="0" width="40" height="40" filterUnits="userSpaceOnUse" color-interpolation-filters="sRGB">
<feFlood flood-opacity="0" result="BackgroundImageFix"/>
<feColorMatrix in="SourceAlpha" type="matrix" values="0 0 0 0 0 0 0 0 0 0 0 0 0 0 0 0 0 0 127 0" result="hardAlpha"/>
<feOffset dy="4"/>
<feGaussianBlur stdDeviation="2"/>
<feComposite in2="hardAlpha" operator="out"/>
<feColorMatrix type="matrix" values="0 0 0 0 0 0 0 0 0 0 0 0 0 0 0 0 0 0 0.25 0"/>
<feBlend mode="normal" in2="BackgroundImageFix" result="effect1_dropShadow_120_284"/>
<feBlend mode="normal" in="SourceGraphic" in2="effect1_dropShadow_120_284" result="shape"/>
</filter>
</defs>
</svg>
